<mxfile host="app.diagrams.net" modified="2021-01-27T02:31:45.587Z" agent="5.0 (Windows NT 10.0; Win64; x64) AppleWebKit/537.36 (KHTML, like Gecko) Chrome/87.0.4280.141 Safari/537.36" etag="gjCGohZxCbFGlVyvVYos" version="14.2.7" type="github">
  <diagram id="NnM_-wzsjrCjOTmRS4_9" name="Page-1">
    <mxGraphModel dx="2500" dy="896" grid="1" gridSize="10" guides="1" tooltips="1" connect="1" arrows="1" fold="1" page="1" pageScale="1" pageWidth="827" pageHeight="1169" math="0" shadow="0">
      <root>
        <mxCell id="0" />
        <mxCell id="1" parent="0" />
        <mxCell id="v-Vg8zxFV1jTQMddLzM1-11" value="" style="edgeStyle=orthogonalEdgeStyle;rounded=0;orthogonalLoop=1;jettySize=auto;html=1;" edge="1" parent="1" source="v-Vg8zxFV1jTQMddLzM1-9" target="v-Vg8zxFV1jTQMddLzM1-10">
          <mxGeometry relative="1" as="geometry" />
        </mxCell>
        <mxCell id="v-Vg8zxFV1jTQMddLzM1-9" value="Edit" style="rounded=0;whiteSpace=wrap;html=1;" vertex="1" parent="1">
          <mxGeometry x="-230" y="270" width="120" height="60" as="geometry" />
        </mxCell>
        <mxCell id="v-Vg8zxFV1jTQMddLzM1-13" value="" style="edgeStyle=orthogonalEdgeStyle;rounded=0;orthogonalLoop=1;jettySize=auto;html=1;" edge="1" parent="1" source="v-Vg8zxFV1jTQMddLzM1-10" target="v-Vg8zxFV1jTQMddLzM1-12">
          <mxGeometry relative="1" as="geometry" />
        </mxCell>
        <mxCell id="v-Vg8zxFV1jTQMddLzM1-10" value="router" style="whiteSpace=wrap;html=1;rounded=0;" vertex="1" parent="1">
          <mxGeometry x="-30" y="270" width="120" height="60" as="geometry" />
        </mxCell>
        <mxCell id="v-Vg8zxFV1jTQMddLzM1-17" value="" style="edgeStyle=orthogonalEdgeStyle;rounded=0;orthogonalLoop=1;jettySize=auto;html=1;" edge="1" parent="1" source="v-Vg8zxFV1jTQMddLzM1-12" target="v-Vg8zxFV1jTQMddLzM1-16">
          <mxGeometry relative="1" as="geometry" />
        </mxCell>
        <mxCell id="v-Vg8zxFV1jTQMddLzM1-12" value="set_id" style="whiteSpace=wrap;html=1;rounded=0;" vertex="1" parent="1">
          <mxGeometry x="150" y="270" width="120" height="60" as="geometry" />
        </mxCell>
        <mxCell id="v-Vg8zxFV1jTQMddLzM1-21" value="" style="edgeStyle=orthogonalEdgeStyle;rounded=0;orthogonalLoop=1;jettySize=auto;html=1;" edge="1" parent="1" source="v-Vg8zxFV1jTQMddLzM1-16" target="v-Vg8zxFV1jTQMddLzM1-20">
          <mxGeometry relative="1" as="geometry" />
        </mxCell>
        <mxCell id="v-Vg8zxFV1jTQMddLzM1-16" value="targetList" style="whiteSpace=wrap;html=1;rounded=0;" vertex="1" parent="1">
          <mxGeometry x="354" y="270" width="120" height="60" as="geometry" />
        </mxCell>
        <mxCell id="v-Vg8zxFV1jTQMddLzM1-20" value="" style="whiteSpace=wrap;html=1;rounded=0;" vertex="1" parent="1">
          <mxGeometry x="554" y="270" width="120" height="60" as="geometry" />
        </mxCell>
        <mxCell id="v-Vg8zxFV1jTQMddLzM1-23" value="" style="edgeStyle=orthogonalEdgeStyle;rounded=0;orthogonalLoop=1;jettySize=auto;html=1;" edge="1" parent="1" source="v-Vg8zxFV1jTQMddLzM1-22" target="v-Vg8zxFV1jTQMddLzM1-16">
          <mxGeometry relative="1" as="geometry" />
        </mxCell>
        <mxCell id="v-Vg8zxFV1jTQMddLzM1-22" value="" style="shape=image;verticalLabelPosition=bottom;labelBackgroundColor=#ffffff;verticalAlign=top;aspect=fixed;imageAspect=0;image=data:image/png,iVBORw0KGgoAAAANSUhEUgAAAKoAAACECAYAAAAA0LDEAAAQZUlEQVR4Ae2d+1dTWZbH/XX+hdSyes30HQ20JaYJJNC8wQFFVGxARacEFEEEgogvsEABITyUEqt8dvkABLEVH9CgBWh4WNg8qstuq0rAtm2rp7une9bqnllda80PVfOddRJuHpBECEnuvcn+4a6b5OSec+4+n/Pd+9ybfbNk2Y/VoI1sIHYGloi9g9Q/mkSMAQKVPIokPCqBSqBKH1QuJBvJt36P41+9wdYklSROiEIFzwwV7Cqq8sQLlN8+CUUgQUoTQNgJYBfUsHN/RXFDBikphQeCM2AX1KCGb1B2Pk/wTpKaCatmYrC/XVCV2imUXz5AoJKiCs6AbVCDNiK+9W/YfyJF8E6KYUZTH4RV9TmgcopiZL/4DtXTQNVIF6JCaSFFkAoLKbP/HFD5QeEC1yLu2n/hyKl0UlRy/YIzYBNUBmxAzUsc/6RQ8E7yk4f2wiubUGNgF9TQj/6MksbdBCopquAM2AVVfeoNjrdXw0/lvTNZKAWhdi2ZswsqF3MI73f9gW6hkqKKW1FpVlvOarKHcPawq6g0MMINDNne0vYEKrl1wd36fCYlgUqgEqjzmSn0HUsXR/awbg9SVFJUaSmqKnaDJDpMimNdcTzdLkZFJVC9EwCpAE6gkuuXhCclUAlUAlUqboX6Kf6whxTVjYpK6eeOTwgC1Y2gUvq5B4DKhWzFxT+VQLPGMvXFJ3EzqnTl+PRNDXomDqAkNxLLFIbv+GzajBrdcTx4XYOusSIczo4wxltcQBS2XT6Kh3+sR8f5tcbPmZv3TdpicdzBXeEW5bb6stgQgdLPPRRUThGLw2NaXGlYB2VQMML25aHj9SFkrVaBU8Rg/xNWFg9/dTBCNbm4PV2A1BBDWW5fJW7fTsWe5goLUDnFGpRMVOFc+RqsUgUj7IAG9yfzsCnANEFcBSqln3sCqAEp+PhPh7E3ygyYdWlofa3BFqXhM04RiX1D9ThzMAhcYArO/rEIO1V8GYO6AqXbGKirkVq8Fn4KFdZdmgVqyAYUtW5DnD9/3EbUvTqKwnVm7VrpC6+my3fcRMnX32Jf+TYLFebL7e0p/dwTQFVsRO2r/UgzV7b4NFyfBWrhcA3q8lUwqN4+7JgJAzhFNIo+q0JFhgk4Bs1sUOeAtCkD7a802Ko2HcdZ6Qt/HJfUiLy+F9i1b9PCQKX084XZa9baQdSLKU4Zj+O/rsG1xgSoQkIRUZSPjt8fwO5oc1DXouRJEXavXjioXGAs9uuq0XIqDstngOeBdNae0s8dV1HzMRA1qKyjqzIycG68Cg9flKJptAp3riRArjAHlXfhCwOVU0YivaMCnfc2I2gmtDA3jLNfU/r54oAVPahGYBLex9VnGmwNmwHTToxqPMaG6+cU4djcXIau3u2ImolxzY9x1WtKP3ccVkmAyvlHI7+/Eh8fMl1G4lf9l9mqXzV71a/CsgA15AFqrP9ZBTouxOtfL/dnC60QrD93FF26DMQGm+LS+cLJJZ2FZuAlMvcnLjjmovRzDwaVU6gQVnkIv+jbjqBZcaThOmr5nOuonGI9tNP1GPrzSYvtRkMsOEU8Kr6qx8B/1EH3B36rRb1mftAu39GK4l//NzTHFr7qp/RzDwZ1vkonhe9R+jmBumA3LAWwqY8msEURowbFReHSp4fA9mxwxPj+aXw6IgINMTLbm78noExAucoWgoOasCNBD6nY99t/8m96OK3tXTU4VK9pAggOqtiV1Lx/s5WUf09AmYBylS0EB9VVJ0b1uh4ed9qYQJ11T9mdxqe25j+ZBAOVsl7nP0gEtNmj0d0Njrvbo8GW9sQgRSXXL4lr0AQqgUqg2nO35Pql7Yrtja0rykhRJayogTWvoJ3+HtWT36Gw8qdGZeS2tKJk8jtUT/0ftJ0NWDHrxzyuAMnVdRKoEgfV3t8rLS8cIlAXO4Ok6vojy5+g50yOUb0Wa4fFHM8UlUB1sdIQqIuPUQlUF0PKVERIUP1S63G++0v0jf0Ofbph1O9LgQ8fx8UVoPLGOB48nUTXvVvITzL8okue14Ghz7+x2AYnnqMilWUNZEE79BQHE/j8rVzUPR1CYRwry0DFownUVlxBy+Np9OoGoM3ZaHyIBrOFoynYBKoHg8oeapF38xV+VpIIX/8grEqpQu3VeqxTMqhikNn0Ak1VGfAPDEdIzg3c672ANSyZ0D8IcmUQoiuY68/Vv5Yrg/XAvR3Ul2irz4dKFY6Q3JvoGm5DillCoaMp2ASqR4MajayWV7h5pgixsdGQzzyIgikbp8hE1cAwCmceK8Qp9qBm+BHyzR6KYS1GfTuoz1CWwqttPk6ODGJf3PxSX+zFsASqB4PKBl4eX4SyKzp0DL1E/8ATNH6QgZVMNRU5qB1+g4Gx30Fn3IZQuNYElWOgTqBkEw8qa+MJiuJNddqD0V4ZgerhoPKDzymCoEhuRNPoY+Szh1roFdW+2lkHlcWhYyjmYfQvwOnRfuRF8TEqKSpvc0f3XncdlVMkI/9aHypyE/GeUo33EmpxdbQPuXqoViOz6Ut8UroNq5RBUKTU4syts0g0e8yQ6kgfHreegErFYlY+Ro1C+tUXuFGfjYDACIQVdKCr7wLW6lWaQTyFlro8fYwavLcdnXNiVMdSsB1VVC6pBSUv/4Hde01PP3QUIHcd53WgMsMGZpzFJw9eoH/sFXp1n+HjkjTT3Rt+1T/yEj0PPsXxbMsVOhepwYl7z9E//gaDE4aVvX6wVmtwvI1dLZhCV+dtaFIMVwsMq/5RaMsv47ruJXp1g1ZW/Y6lYDsKqt+xZ9CO30e42QR0F3COtuOVoDpqLEeOM4A6jpLExceks9sPqJnS3z61eQuV3Ua9d8o0CfULxlCsaftfFH+4UxQ3LWafk633BKqL43H+Oiq/mLI1EO76nFPsRfrYNJLNHrPprrYX045XghqxOgxPW94H2zPjCfV+MQPnyLH2zteR+tx5jNeBun1LjB5SMezdOdCsLTY5bZ23u/uy0Pa8DlQxKCmvbAsdrMV+/22eY7H1u/J4rwPVlcakuhf/QxtbNiRQXbyYsmV4+nxhUC955199wDb2ayb+tTv27m7PHeck5TaitmXBkc1d50ygzkxUdxlcrO04Aik7xl3nQ6ASqHrYCFQbIJDrN4Rc7lKkt7VDoBKobnOPb4PRXjmBSqBKBtTI1CzEZB5AXPbMtjPHuMCKTCswfZ6lQXTqbn2ZPfidWUYxqo2J5EwjS6EupqiRqYVI7wdqfmvYKm99ZAR19annxs+1UxPYQqC6J3YL+mAI3afS3a52Mm4PTo31Yo9a7va27U0Yc1C1Twawtew0kgoKjaBG7qlEctlp7Lj7NxCoblQ3AtVSECxA7b+J2BnFnB27brz2nwSqvRnvrLJ3M39ukfLMUqAHJ36DssQZhQvNxrHrY+gZmUTnnXbkxCuNyvduRD4qWCr1yBS6u7tQnBpuLEu99AYXa2pw9uEk+oZ+iXOl2yDnDHX+y9pSNHZ9hb4n4zh3uAGNoyZFXRqei4o2Q3td9ztQkKjW1xl6bARXDkRAJs/Fh6O/xME4OWTxH+L2lSL84IcpKOsfg7b0Eq4PTKG3vw+VGdF4Z6Y9ZqulyS0o/vof0BzdaOyjPRsSqDZUUqjLU7JlvnhXvgIhpUPobsjQv2bv2SDLOBXSrn6NpmOb4euzCsqdzbj78CNE6cvUyLj8DOeLN0Hu4wf/tGu4M9yMRLkBRgbqg9ZqRPmvBBdzFOeHx3EkntUZij1tv0XLiW3w9fWHOuc67s64fhmnRkbTpL5shY8CgZmt6Hx0EXHL5PjnrNvorN8OWUQ1GjoHUbtzBX6w6wZuVSVDxm1GWf8Umqsy4eerQEDWDXSxviw3hROy+Frs7f0S6TmxBKq9Gfq2MqFA5ftlzfXLuFRU6AahCTcMuIxLQ/VwH3KsxJMyLhO1Tx8jN8QE6pUig8LKuJXYfmEKp/coIeO2o3JwBPtjZuqUa9A4blBUQ3tmZazOkUfIDZZDlnAGd5sO4oepV1BXeQYnS9ZAXTyAc7msTgbqFzi6nu9nNupHDcfx57fQPSmqyBSVH0DroKZDOyddegCaCKaMSsQV38HPB6fxWJ9K/RoDEwPIDzOBelETNEe9ZByrcwgFETxUpsXU3DLTd2WrDuJCdwM27G/GkcR9OHkmC4mNIyjdwPrCQB3DoTV8nTtRM2LqC3+OC9kTqJIClSmqDnmhBgDMB1oWUo7mzzqRGeY3EybssoBDH6NaBdVBReW2orzvBkrrmpC+Mgml5xtwuK0buxQE6hw1MB8oZ78W2vWvLHyIR80fwM93hT5ONcSoaqRdfY5LhxMhl6+Az/pKnG7/EPE+csjCKtE80oPcGCWW+qgRmnUVt0ZNKmYb1DDk3GAxaip8fViM2o77RtdviFGbKrcaYuJdLbg/E6PKuBDktI/gZtNZxHCB2H1hCG13LiJOHy+/XVFl8Q3IezyJjLzV8xpXUlSRKqoscDfK7/xmJu3ZBNw7xlX/NLp7elCablhNy7gArD16H7eGptE/9BRnj9Ti1LDpOFugsgluXPV/9jkulpzBR2bXUZeG56GibRw9IyzNugMFmwyrfnbchtNfY7ClGMs5ORJOPsdgWyl85wnq0uRrOPLs78gvdmDVP3Af69ndKSt3ppJb/0KXp5yt2lSf5bVSe/YwV1S6M2WmrkK7fnuD5o1lGF8CjP0T/udXSXj9hWH75vOl0H8+vgTfT4QZP3/9RTC+HVuiL3OXrbzyXv+q0ACc794PtmeG9rT3qh/9GE9i/x1sz86Pf28PKh7Ihe7t1enMMq8DNSY5Sg+pp+5/qviJHlJre3vgMNfvyGavTmeWeR2onqykzDNYU1JeWe2B4wik7Bh7dTqzzOtAdabxPKkuAtVsAWU+sLSYmv+K3NxurnotelD5/HIGDv+a9gvLOSd7ud5egj2AggbX9YPrSTYmUOlJKZLwpAQqgUqgepLroXMRNlQRXFE5RTGyv/oWpb0PsWZdkCRmN0HrfmgFB5UNOqeMRsjpV6i8Xorl/F89kkumSWvGgChA1cOa34/qno/hR6ASoGaA8t5LNKD6HByB9m6d6c9zrXSW7zTt3e96hba5aEB97+ivoG0vJzWhCWqVAdGAumxnJ47r2hEaHmq1o0LPaGpfWBUXDaicIgUb7v0d2pffo3ryG2xNcv4fiBFswsK2GPuLBlR5Xj8q+pqgDg4mRSX3P4cB0YC6omQc2psnsIxW/XMGaTFK5CnHigbUZRodtF2nLf6301OMTOex+JBDFKByyiio616g+k4tfElRSVGthD6Cg2q8haobRuIW6fx/PKnk4lVyITYUHNSFdJa+6144xGRvAtWKmxHTAFFfDJOTQCVQJRETE6gEKoFKbst7Y0pnjz0pKimqtBTV2TOA6iM1dSYDRkV1ZqVUF0HqbAYIVHL95PqdPauoPu9ValJUUlRpKqrx3julL0tiAL3Fy1hVVEpf9l4XK1bwrYLKOstR+jIpqojCIpugUvoyqaqY1NUmqJS+TKBKAlRKXyZQJQEqpS8TqJIAldKXCVRJgErpywSqJECl9GUCVfSgUvoyQSomSFlf5lyeMt5CpfRluuAvhQv+YptR1B/vVvn/B3Rc5iCZt721AAAAAElFTkSuQmCC;" vertex="1" parent="1">
          <mxGeometry x="329" y="100" width="170" height="132" as="geometry" />
        </mxCell>
        <mxCell id="v-Vg8zxFV1jTQMddLzM1-25" value="" style="edgeStyle=orthogonalEdgeStyle;rounded=0;orthogonalLoop=1;jettySize=auto;html=1;" edge="1" parent="1" source="v-Vg8zxFV1jTQMddLzM1-24" target="v-Vg8zxFV1jTQMddLzM1-12">
          <mxGeometry relative="1" as="geometry" />
        </mxCell>
        <mxCell id="v-Vg8zxFV1jTQMddLzM1-24" value="set_id:[111,222,333]" style="rounded=0;whiteSpace=wrap;html=1;" vertex="1" parent="1">
          <mxGeometry x="150" y="136" width="120" height="60" as="geometry" />
        </mxCell>
      </root>
    </mxGraphModel>
  </diagram>
</mxfile>
